#define Business_width 24
#define Business_height 24
static unsigned char Business_bits[] = {
   0x40, 0x00, 0x02, 0x40, 0x00, 0x02, 0x5e, 0xff, 0x7a, 0x5f, 0xff, 0xfa,
   0x5f, 0xff, 0xfa, 0xff, 0xff, 0xff, 0xff, 0xff, 0xff, 0x03, 0x00, 0xc0,
   0x03, 0x00, 0xc0, 0x03, 0x18, 0xc0, 0x03, 0x38, 0xc0, 0x03, 0x18, 0xc0,
   0x03, 0x18, 0xc0, 0x03, 0x18, 0xc0, 0x03, 0x18, 0xc0, 0x03, 0x10, 0xc0,
   0x03, 0x00, 0xc0, 0x03, 0x00, 0xc0, 0x03, 0x18, 0xc0, 0x03, 0x18, 0xc0,
   0x03, 0x00, 0xc0, 0x03, 0x00, 0xc0, 0xff, 0xff, 0xff, 0xfe, 0xff, 0x7f };
